<svg width="436" height="73" viewBox="0 0 436 73" fill="none" xmlns="http://www.w3.org/2000/svg">
<path d="M92.86 72V1.44H122.652C123.338 1.44 124.253 1.47267 125.396 1.538C126.572 1.57067 127.617 1.66867 128.532 1.832C132.746 2.48534 136.192 3.87367 138.871 5.997C141.582 8.12033 143.575 10.799 144.849 14.033C146.123 17.2343 146.76 20.8113 146.76 24.764C146.76 28.7167 146.107 32.31 144.8 35.544C143.526 38.7453 141.533 41.4077 138.822 43.531C136.143 45.6543 132.713 47.0427 128.532 47.696C127.617 47.8267 126.572 47.9247 125.396 47.99C124.22 48.0553 123.305 48.088 122.652 48.088H106.188V72H92.86ZM106.188 35.642H122.064C122.75 35.642 123.501 35.6093 124.318 35.544C125.135 35.4787 125.886 35.348 126.572 35.152C128.369 34.662 129.757 33.8453 130.737 32.702C131.717 31.526 132.387 30.2357 132.746 28.831C133.138 27.3937 133.334 26.038 133.334 24.764C133.334 23.49 133.138 22.1507 132.746 20.746C132.387 19.3087 131.717 18.0183 130.737 16.875C129.757 15.699 128.369 14.866 126.572 14.376C125.886 14.18 125.135 14.0493 124.318 13.984C123.501 13.9187 122.75 13.886 122.064 13.886H106.188V35.642Z" fill="black"/>
<path d="M151.698 72V1.44H179.922C184.953 1.44 189.02 2.45267 192.123 4.478C195.227 6.47067 197.497 8.986 198.934 12.024C200.372 15.062 201.09 18.1327 201.09 21.236C201.09 25.1887 200.192 28.4717 198.395 31.085C196.631 33.6983 194.198 35.446 191.094 36.328V33.878C195.504 34.7927 198.804 36.8343 200.992 40.003C203.214 43.1717 204.324 46.716 204.324 50.636C204.324 54.85 203.54 58.5577 201.972 61.759C200.437 64.9603 198.085 67.4757 194.916 69.305C191.748 71.1017 187.762 72 182.96 72H151.698ZM165.222 59.456H181.588C183.385 59.456 184.986 59.0803 186.39 58.329C187.795 57.545 188.889 56.467 189.673 55.095C190.49 53.6903 190.898 52.0407 190.898 50.146C190.898 48.48 190.555 46.9937 189.869 45.687C189.183 44.3803 188.138 43.3513 186.733 42.6C185.361 41.816 183.646 41.424 181.588 41.424H165.222V59.456ZM165.222 28.978H179.726C181.229 28.978 182.568 28.7167 183.744 28.194C184.92 27.6713 185.851 26.871 186.537 25.793C187.223 24.6823 187.566 23.2613 187.566 21.53C187.566 19.374 186.897 17.561 185.557 16.091C184.218 14.621 182.274 13.886 179.726 13.886H165.222V28.978Z" fill="black"/>
<path fill-rule="evenodd" clip-rule="evenodd" d="M219 23.016V72H231.015V23.016H219Z" fill="#111111"/>
<path fill-rule="evenodd" clip-rule="evenodd" d="M227.771 4.01599L222.245 4.01656C220.461 4.01721 219 5.46269 219 7.22726L219 7.81786L231.015 7.81777L231.015 7.22604C231.015 5.46166 229.555 4.01684 227.771 4.01599Z" fill="#111111"/>
<path fill-rule="evenodd" clip-rule="evenodd" d="M209.176 21.8196C208.529 21.8196 208 21.2921 208 20.6469L208.001 10.1883C208 9.54363 208.529 9.01588 209.176 9.01599L234.847 9.01633L252.385 16.298C252.982 16.5461 253.562 16.8254 253.561 17.4711L253.562 20.6467C253.562 21.2924 253.032 21.8204 252.386 21.8196H209.176Z" fill="#8E9E90"/>
<path d="M257.064 72.392C253.368 72.392 249.971 71.5333 246.872 69.816C243.773 68.0613 241.309 65.6533 239.48 62.592C237.688 59.4933 236.792 56.0027 236.792 52.12C236.792 48.2373 237.688 44.7653 239.48 41.704C241.309 38.6053 243.773 36.1973 246.872 34.48C249.971 32.7627 253.368 31.904 257.064 31.904C260.797 31.904 264.195 32.7627 267.256 34.48C270.355 36.1973 272.8 38.6053 274.592 41.704C276.384 44.7653 277.28 48.2373 277.28 52.12C277.28 56.0027 276.384 59.4933 274.592 62.592C272.8 65.6533 270.355 68.0613 267.256 69.816C264.157 71.5333 260.76 72.392 257.064 72.392ZM257.064 62.2C259.864 62.2 262.067 61.2853 263.672 59.456C265.315 57.6267 266.136 55.1813 266.136 52.12C266.136 48.984 265.315 46.52 263.672 44.728C262.067 42.8987 259.864 41.984 257.064 41.984C254.227 41.984 252.005 42.8987 250.4 44.728C248.795 46.52 247.992 48.984 247.992 52.12C247.992 55.2187 248.795 57.6827 250.4 59.512C252.005 61.304 254.227 62.2 257.064 62.2Z" fill="#8E9E90"/>
<path d="M300.022 72.392C296.326 72.392 292.929 71.5333 289.83 69.816C286.731 68.0613 284.267 65.6533 282.438 62.592C280.646 59.4933 279.75 56.0027 279.75 52.12C279.75 48.2373 280.646 44.7653 282.438 41.704C284.267 38.6053 286.731 36.1973 289.83 34.48C292.929 32.7627 296.326 31.904 300.022 31.904C303.755 31.904 307.153 32.7627 310.214 34.48C313.313 36.1973 315.758 38.6053 317.55 41.704C319.342 44.7653 320.238 48.2373 320.238 52.12C320.238 56.0027 319.342 59.4933 317.55 62.592C315.758 65.6533 313.313 68.0613 310.214 69.816C307.115 71.5333 303.718 72.392 300.022 72.392ZM300.022 62.2C302.822 62.2 305.025 61.2853 306.63 59.456C308.273 57.6267 309.094 55.1813 309.094 52.12C309.094 48.984 308.273 46.52 306.63 44.728C305.025 42.8987 302.822 41.984 300.022 41.984C297.185 41.984 294.963 42.8987 293.358 44.728C291.753 46.52 290.95 48.984 290.95 52.12C290.95 55.2187 291.753 57.6827 293.358 59.512C294.963 61.304 297.185 62.2 300.022 62.2Z" fill="#8E9E90"/>
<path d="M335.028 63.6H347.292V72H324.052V32.52H335.028V63.6Z" fill="#8E9E90"/>
<path d="M373.792 72L361.416 54.696V72H350.44V32.52H361.416V49.544L373.68 32.52H386.336L371.832 51.672L387.064 72H373.792Z" fill="#8E9E90"/>
<path d="M400.929 32.52V72H389.953V32.52H400.929Z" fill="#8E9E90"/>
<path d="M435.795 32.52V41.256H425.267V72H414.291V41.256H403.875V32.52H435.795Z" fill="#8E9E90"/>
<g clip-path="url(#clip0_28_156)">
<path d="M58.5 0H13.5C6.04416 0 0 6.04416 0 13.5V58.5C0 65.9558 6.04416 72 13.5 72H58.5C65.9558 72 72 65.9558 72 58.5V13.5C72 6.04416 65.9558 0 58.5 0Z" fill="#1E3D22"/>
<path d="M13.5 45.0001H22.5V54.0001H49.5V45.0001H58.5V63.0001C43.5 66.0001 28.5 66.0001 13.5 63.0001V45.0001Z" fill="white"/>
<path d="M36 9.00006V45.0001H58.5L36 9.00006Z" fill="white"/>
<path d="M36 20.2501V45.0001H13.5L36 20.2501Z" fill="white" fill-opacity="0.55"/>
</g>
<defs>
<clipPath id="clip0_28_156">
<rect width="72" height="72" fill="white"/>
</clipPath>
</defs>
</svg>
